<svg width="73" height="24" viewBox="0 0 73 24" fill="none" xmlns="http://www.w3.org/2000/svg">
<rect width="73" height="24" fill="#1E1E1E"/>
<path d="M9.22 5.02C10.22 5.02 11.1733 5.20667 12.08 5.58L11.54 6.84C10.8733 6.54667 10.12 6.4 9.28 6.4C7.81333 6.4 7.08 6.98 7.08 8.14V10.28H10.64L10.46 11.62H7.08V20H5.38V11.62H2.88V10.28H5.38V8.18C5.38 7.23333 5.74 6.47333 6.46 5.9C7.19333 5.31333 8.11333 5.02 9.22 5.02ZM19.0122 9.24C20.4655 9.24 21.5789 9.73333 22.3522 10.72C23.1389 11.6933 23.5322 13.0267 23.5322 14.72C23.5322 16.3733 23.1322 17.7067 22.3322 18.72C21.5455 19.72 20.4322 20.22 18.9922 20.22C17.5389 20.22 16.4189 19.7333 15.6322 18.76C14.8455 17.7733 14.4522 16.4333 14.4522 14.74C14.4522 13.0733 14.8455 11.74 15.6322 10.74C16.4322 9.74 17.5589 9.24 19.0122 9.24ZM19.0122 10.62C18.0922 10.62 17.4055 10.96 16.9522 11.64C16.4989 12.32 16.2722 13.3533 16.2722 14.74C16.2722 16.1267 16.4922 17.16 16.9322 17.84C17.3855 18.5067 18.0722 18.84 18.9922 18.84C19.9122 18.84 20.5922 18.5067 21.0322 17.84C21.4855 17.16 21.7122 16.12 21.7122 14.72C21.7122 13.3333 21.4855 12.3067 21.0322 11.64C20.5922 10.96 19.9189 10.62 19.0122 10.62ZM31.1044 17.4C31.1044 18.3467 31.6844 18.82 32.8444 18.82C33.391 18.82 33.9777 18.7 34.6044 18.46L35.0444 19.68C34.3777 20.04 33.5444 20.22 32.5444 20.22C31.5977 20.22 30.8377 19.96 30.2644 19.44C29.7044 18.92 29.4244 18.2133 29.4244 17.32V6.56H26.1844V5.22H31.1044V17.4ZM46.9766 5.22V20H45.4966L45.3366 18.62C44.9499 19.1533 44.5032 19.5533 43.9966 19.82C43.4899 20.0867 42.9432 20.22 42.3566 20.22C41.0232 20.22 40.0166 19.7333 39.3366 18.76C38.6699 17.7867 38.3366 16.4467 38.3366 14.74C38.3366 13.6867 38.5032 12.7467 38.8366 11.92C39.1699 11.08 39.6432 10.4267 40.2566 9.96C40.8832 9.48 41.6166 9.24 42.4566 9.24C43.6166 9.24 44.5632 9.66 45.2966 10.5V5.02L46.9766 5.22ZM42.8966 10.6C42.0166 10.6 41.3366 10.9467 40.8566 11.64C40.3899 12.3333 40.1566 13.3667 40.1566 14.74C40.1566 16.1 40.3699 17.1333 40.7966 17.84C41.2366 18.5333 41.8699 18.88 42.6966 18.88C43.6966 18.88 44.5632 18.32 45.2966 17.2V11.96C45.0032 11.52 44.6499 11.1867 44.2366 10.96C43.8232 10.72 43.3766 10.6 42.8966 10.6Z" fill="white"/>
<path d="M69.5858 22H51V3.41421L69.5858 22Z" fill="white" stroke="white" stroke-width="2"/>
<rect x="1.5" y="1.5" width="48" height="21" stroke="white"/>
</svg>
